<?xml version="1.0" encoding="utf-8"?>
<!-- Generator: Adobe Illustrator 16.0.4, SVG Export Plug-In . SVG Version: 6.00 Build 0)  -->
<!DOCTYPE svg PUBLIC "-//W3C//DTD SVG 1.1//EN" "http://www.w3.org/Graphics/SVG/1.1/DTD/svg11.dtd">
<svg version="1.1" id="Layer_1" xmlns="http://www.w3.org/2000/svg" xmlns:xlink="http://www.w3.org/1999/xlink" x="0px" y="0px"
	 width="592.616px" height="125.532px" viewBox="0 0 592.616 125.532" enable-background="new 0 0 592.616 125.532"
	 xml:space="preserve">
<g>
	<path d="M11.273,113.096v-99.26h61.739v15.82H28.073v27.859h40.319v15.54H28.073v40.04H11.273z"/>
	<path d="M79.87,113.096V11.737h16.24v101.359H79.87z"/>
	<path d="M124.809,74.036l17.5-2.659c3.92-0.561,5.04-2.521,5.04-4.9c0-5.74-3.92-10.36-12.88-10.36c-8.54,0-13.3,5.461-14,12.32
		l-14.84-3.36c1.26-11.76,11.899-22.26,28.699-22.26c21,0,28.98,11.9,28.98,25.48v33.88c0,6.16,0.7,10.22,0.84,10.92h-15.12
		c-0.14-0.42-0.7-3.221-0.7-8.68c-3.22,5.18-9.939,10.779-21,10.779c-14.279,0-23.1-9.8-23.1-20.58
		C104.229,82.436,113.189,75.716,124.809,74.036z M147.349,84.817v-3.08l-17.78,2.66c-5.04,0.84-9.1,3.639-9.1,9.239
		c0,4.62,3.5,8.819,9.939,8.819C139.509,102.456,147.349,98.116,147.349,84.817z"/>
	<path d="M194.809,44.917h14.14v14.42h-14.14v31.64c0,6.021,2.66,8.54,8.68,8.54c2.24,0,4.9-0.42,5.6-0.561v13.44
		c-0.979,0.421-4.06,1.54-9.939,1.54c-12.6,0-20.44-7.56-20.44-20.3v-34.3h-12.6v-14.42h3.5c7.28,0,10.5-4.62,10.5-10.641v-10.22
		h14.7V44.917z"/>
	<path d="M355.945,13.836h17.361l-27.861,99.26h-17.359l-24.08-75.04l-24.08,75.04h-17.22l-28.14-99.26h17.64l19.88,72.52
		l23.24-72.52h17.5l23.659,73.08L355.945,13.836z"/>
	<path d="M393.466,113.096h-16.24V11.737h16.24v39.76c4.619-6.021,12.318-8.54,19.459-8.54c16.801,0,24.92,12.04,24.92,27.02v43.12
		h-16.24v-40.32c0-8.399-3.779-15.12-14-15.12c-8.959,0-13.859,6.721-14.139,15.4V113.096z"/>
	<path d="M457.164,10.336c5.881,0,10.641,4.76,10.641,10.64s-4.76,10.5-10.641,10.5c-5.738,0-10.5-4.62-10.5-10.5
		S451.425,10.336,457.164,10.336z M449.185,113.096v-68.18h16.1v68.18H449.185z"/>
	<path d="M498.464,44.917h14.139v14.42h-14.139v31.64c0,6.021,2.66,8.54,8.68,8.54c2.24,0,4.9-0.42,5.6-0.561v13.44
		c-0.98,0.421-4.061,1.54-9.939,1.54c-12.6,0-20.441-7.56-20.441-20.3v-34.3h-12.6v-14.42h3.5c7.281,0,10.5-4.62,10.5-10.641v-10.22
		h14.701V44.917z"/>
	<path d="M580.503,93.636c-3.639,11.899-14.42,21.56-30.799,21.56c-18.48,0-34.861-13.439-34.861-36.539
		c0-21.561,15.961-35.841,33.18-35.841c21,0,33.32,13.86,33.32,35.421c0,2.66-0.279,4.899-0.42,5.18h-49.84
		c0.42,10.359,8.541,17.779,18.621,17.779c9.799,0,14.84-5.18,17.08-11.899L580.503,93.636z M564.964,71.516
		c-0.281-7.979-5.6-15.12-16.801-15.12c-10.219,0-16.1,7.84-16.66,15.12H564.964z"/>
</g>
</svg>
